<svg width="22" height="20" viewBox="0 0 22 20" fill="none" xmlns="http://www.w3.org/2000/svg">
<path fill-rule="evenodd" clip-rule="evenodd" d="M7.90912 0C6.18773 0 4.5971 0.902837 3.73641 2.36842L0.64552 7.63158C-0.215172 9.09715 -0.215174 10.9028 0.64552 12.3684L3.73641 17.6316C4.5971 19.0972 6.18773 20 7.90912 20H14.0909C15.8123 20 17.4029 19.0972 18.2636 17.6316L21.3545 12.3684C22.2152 10.9028 22.2152 9.09715 21.3545 7.63158L18.2636 2.36842C17.4029 0.902837 15.8123 0 14.0909 0H7.90912ZM14.0909 3.15789H10.2273C9.6091 3.15789 9.22284 3.81573 9.53238 4.34178C10.4875 5.96484 11.4448 7.58668 12.3985 9.21052C12.6854 9.69905 12.6854 10.3009 12.3985 10.7895C11.4448 12.4134 10.4875 14.0352 9.53238 15.6582C9.22284 16.1843 9.6091 16.8421 10.2273 16.8421H14.0909C14.6647 16.8421 15.1949 16.5412 15.4818 16.0526L18.5727 10.7895C18.8596 10.3009 18.8596 9.69905 18.5727 9.21052L15.4818 3.94736C15.1949 3.45884 14.6647 3.15789 14.0909 3.15789Z" fill="white"/>
</svg>
