<svg width="48" height="48" viewBox="0 0 48 48" fill="none" xmlns="http://www.w3.org/2000/svg">
<g clip-path="url(#clip0_1122_16)">
<g filter="url(#filter0_iii_1122_16)">
<mask id="mask0_1122_16" style="mask-type:luminance" maskUnits="userSpaceOnUse" x="0" y="0" width="48" height="48">
<path d="M36 0H12C5.37258 0 0 5.37258 0 12V36C0 42.6274 5.37258 48 12 48H36C42.6274 48 48 42.6274 48 36V12C48 5.37258 42.6274 0 36 0Z" fill="white"/>
</mask>
<g mask="url(#mask0_1122_16)">
<path d="M36 0H12C5.37258 0 0 5.37258 0 12V36C0 42.6274 5.37258 48 12 48H36C42.6274 48 48 42.6274 48 36V12C48 5.37258 42.6274 0 36 0Z" fill="#0066C8"/>
<path d="M48 0H0V48H48V0Z" fill="url(#paint0_linear_1122_16)"/>
<g filter="url(#filter1_d_1122_16)">
<path fill-rule="evenodd" clip-rule="evenodd" d="M19.6719 9.74963C17.2604 9.74963 15.032 11.0362 13.8263 13.1246L9.49613 20.6246C8.29036 22.7131 8.29035 25.2862 9.49612 27.3746L13.8263 34.8746C15.032 36.9631 17.2604 38.2496 19.6719 38.2496H28.3322C30.7437 38.2496 32.9721 36.9631 34.1778 34.8746L38.508 27.3746C39.7137 25.2862 39.7137 22.7131 38.508 20.6246L34.1778 13.1246C32.9721 11.0362 30.7437 9.74963 28.3322 9.74963H19.6719ZM28.3322 14.2496H22.9195C22.0535 14.2496 21.5124 15.1871 21.946 15.9367C23.284 18.2495 24.6252 20.5606 25.9612 22.8746C26.3631 23.5708 26.3631 24.4285 25.9612 25.1246C24.6252 27.4386 23.284 29.7498 21.946 32.0626C21.5124 32.8122 22.0535 33.7496 22.9195 33.7496H28.3322C29.136 33.7496 29.8788 33.3208 30.2807 32.6246L34.6109 25.1246C35.0128 24.4285 35.0128 23.5708 34.6109 22.8746L30.2807 15.3746C29.8788 14.6785 29.136 14.2496 28.3322 14.2496Z" fill="url(#paint1_linear_1122_16)"/>
</g>
</g>
<path d="M36 1H12C5.92487 1 1 5.92487 1 12V36C1 42.0751 5.92487 47 12 47H36C42.0751 47 47 42.0751 47 36V12C47 5.92487 42.0751 1 36 1Z" stroke="url(#paint2_linear_1122_16)" stroke-width="2"/>
</g>
</g>
<defs>
<filter id="filter0_iii_1122_16" x="0" y="-3" width="48" height="54" filterUnits="userSpaceOnUse" color-interpolation-filters="sRGB">
<feFlood flood-opacity="0" result="BackgroundImageFix"/>
<feBlend mode="normal" in="SourceGraphic" in2="BackgroundImageFix" result="shape"/>
<feColorMatrix in="SourceAlpha" type="matrix" values="0 0 0 0 0 0 0 0 0 0 0 0 0 0 0 0 0 0 127 0" result="hardAlpha"/>
<feOffset dy="-3"/>
<feGaussianBlur stdDeviation="1.5"/>
<feComposite in2="hardAlpha" operator="arithmetic" k2="-1" k3="1"/>
<feColorMatrix type="matrix" values="0 0 0 0 0 0 0 0 0 0 0 0 0 0 0 0 0 0 0.1 0"/>
<feBlend mode="normal" in2="shape" result="effect1_innerShadow_1122_16"/>
<feColorMatrix in="SourceAlpha" type="matrix" values="0 0 0 0 0 0 0 0 0 0 0 0 0 0 0 0 0 0 127 0" result="hardAlpha"/>
<feOffset dy="3"/>
<feGaussianBlur stdDeviation="1.5"/>
<feComposite in2="hardAlpha" operator="arithmetic" k2="-1" k3="1"/>
<feColorMatrix type="matrix" values="0 0 0 0 1 0 0 0 0 1 0 0 0 0 1 0 0 0 0.1 0"/>
<feBlend mode="normal" in2="effect1_innerShadow_1122_16" result="effect2_innerShadow_1122_16"/>
<feColorMatrix in="SourceAlpha" type="matrix" values="0 0 0 0 0 0 0 0 0 0 0 0 0 0 0 0 0 0 127 0" result="hardAlpha"/>
<feOffset/>
<feGaussianBlur stdDeviation="2"/>
<feComposite in2="hardAlpha" operator="arithmetic" k2="-1" k3="1"/>
<feColorMatrix type="matrix" values="0 0 0 0 0 0 0 0 0 0 0 0 0 0 0 0 0 0 0.2 0"/>
<feBlend mode="normal" in2="effect2_innerShadow_1122_16" result="effect3_innerShadow_1122_16"/>
</filter>
<filter id="filter1_d_1122_16" x="4.0918" y="7.49963" width="39.8206" height="37.5" filterUnits="userSpaceOnUse" color-interpolation-filters="sRGB">
<feFlood flood-opacity="0" result="BackgroundImageFix"/>
<feColorMatrix in="SourceAlpha" type="matrix" values="0 0 0 0 0 0 0 0 0 0 0 0 0 0 0 0 0 0 127 0" result="hardAlpha"/>
<feOffset dy="2.25"/>
<feGaussianBlur stdDeviation="2.25"/>
<feComposite in2="hardAlpha" operator="out"/>
<feColorMatrix type="matrix" values="0 0 0 0 0.141176 0 0 0 0 0.141176 0 0 0 0 0.141176 0 0 0 0.1 0"/>
<feBlend mode="normal" in2="BackgroundImageFix" result="effect1_dropShadow_1122_16"/>
<feBlend mode="normal" in="SourceGraphic" in2="effect1_dropShadow_1122_16" result="shape"/>
</filter>
<linearGradient id="paint0_linear_1122_16" x1="24" y1="5.36442e-07" x2="26" y2="48" gradientUnits="userSpaceOnUse">
<stop stop-color="white" stop-opacity="0"/>
<stop offset="1" stop-color="white" stop-opacity="0.12"/>
</linearGradient>
<linearGradient id="paint1_linear_1122_16" x1="24.002" y1="9.74963" x2="24.002" y2="38.2496" gradientUnits="userSpaceOnUse">
<stop stop-color="white" stop-opacity="0.8"/>
<stop offset="1" stop-color="white" stop-opacity="0.5"/>
</linearGradient>
<linearGradient id="paint2_linear_1122_16" x1="24" y1="-5.05344e-08" x2="24" y2="48" gradientUnits="userSpaceOnUse">
<stop stop-color="white" stop-opacity="0.12"/>
<stop offset="1" stop-color="white" stop-opacity="0"/>
</linearGradient>
<clipPath id="clip0_1122_16">
<rect width="48" height="48" fill="white"/>
</clipPath>
</defs>
</svg>
