<svg width="88" height="24" viewBox="0 0 88 24" fill="none" xmlns="http://www.w3.org/2000/svg">
<g clip-path="url(#clip0_1122_77)">
<path fill-rule="evenodd" clip-rule="evenodd" d="M7.90912 2C6.18773 2 4.5971 2.90284 3.73641 4.36842L0.64552 9.63158C-0.215172 11.0972 -0.215174 12.9028 0.64552 14.3684L3.73641 19.6316C4.5971 21.0972 6.18773 22 7.90912 22H14.0909C15.8123 22 17.4029 21.0972 18.2636 19.6316L21.3545 14.3684C22.2152 12.9028 22.2152 11.0972 21.3545 9.63158L18.2636 4.36842C17.4029 2.90284 15.8123 2 14.0909 2H7.90912ZM14.0909 5.15789H10.2273C9.6091 5.15789 9.22284 5.81573 9.53238 6.34178C10.4875 7.96484 11.4448 9.58668 12.3985 11.2105C12.6854 11.699 12.6854 12.3009 12.3985 12.7895C11.4448 14.4134 10.4875 16.0352 9.53238 17.6582C9.22284 18.1843 9.6091 18.8421 10.2273 18.8421H14.0909C14.6647 18.8421 15.1949 18.5412 15.4818 18.0526L18.5727 12.7895C18.8596 12.3009 18.8596 11.699 18.5727 11.2105L15.4818 5.94736C15.1949 5.45884 14.6647 5.15789 14.0909 5.15789Z" fill="white"/>
<path d="M28.2642 19V4.45455H31.3395V16.4645H37.5753V19H28.2642ZM52.4119 11.7273C52.4119 13.3134 52.1113 14.6629 51.5099 15.7756C50.9134 16.8883 50.099 17.7382 49.0668 18.3253C48.0393 18.9077 46.884 19.1989 45.6009 19.1989C44.3082 19.1989 43.1482 18.9053 42.1207 18.3182C41.0933 17.7311 40.2813 16.8812 39.6847 15.7685C39.0881 14.6558 38.7898 13.3087 38.7898 11.7273C38.7898 10.1411 39.0881 8.79167 39.6847 7.67898C40.2813 6.56629 41.0933 5.71875 42.1207 5.13636C43.1482 4.54924 44.3082 4.25568 45.6009 4.25568C46.884 4.25568 48.0393 4.54924 49.0668 5.13636C50.099 5.71875 50.9134 6.56629 51.5099 7.67898C52.1113 8.79167 52.4119 10.1411 52.4119 11.7273ZM49.294 11.7273C49.294 10.6998 49.1402 9.83333 48.8324 9.12784C48.5294 8.42235 48.1009 7.88731 47.5469 7.52273C46.9929 7.15814 46.3442 6.97585 45.6009 6.97585C44.8575 6.97585 44.2088 7.15814 43.6548 7.52273C43.1009 7.88731 42.67 8.42235 42.3622 9.12784C42.0592 9.83333 41.9077 10.6998 41.9077 11.7273C41.9077 12.7547 42.0592 13.6212 42.3622 14.3267C42.67 15.0322 43.1009 15.5672 43.6548 15.9318C44.2088 16.2964 44.8575 16.4787 45.6009 16.4787C46.3442 16.4787 46.9929 16.2964 47.5469 15.9318C48.1009 15.5672 48.5294 15.0322 48.8324 14.3267C49.1402 13.6212 49.294 12.7547 49.294 11.7273ZM68.0565 11.7273C68.0565 13.3134 67.7558 14.6629 67.1545 15.7756C66.5579 16.8883 65.7435 17.7382 64.7113 18.3253C63.6838 18.9077 62.5285 19.1989 61.2454 19.1989C59.9528 19.1989 58.7927 18.9053 57.7653 18.3182C56.7378 17.7311 55.9258 16.8812 55.3292 15.7685C54.7326 14.6558 54.4343 13.3087 54.4343 11.7273C54.4343 10.1411 54.7326 8.79167 55.3292 7.67898C55.9258 6.56629 56.7378 5.71875 57.7653 5.13636C58.7927 4.54924 59.9528 4.25568 61.2454 4.25568C62.5285 4.25568 63.6838 4.54924 64.7113 5.13636C65.7435 5.71875 66.5579 6.56629 67.1545 7.67898C67.7558 8.79167 68.0565 10.1411 68.0565 11.7273ZM64.9386 11.7273C64.9386 10.6998 64.7847 9.83333 64.4769 9.12784C64.1739 8.42235 63.7454 7.88731 63.1914 7.52273C62.6374 7.15814 61.9888 6.97585 61.2454 6.97585C60.502 6.97585 59.8533 7.15814 59.2994 7.52273C58.7454 7.88731 58.3145 8.42235 58.0067 9.12784C57.7037 9.83333 57.5522 10.6998 57.5522 11.7273C57.5522 12.7547 57.7037 13.6212 58.0067 14.3267C58.3145 15.0322 58.7454 15.5672 59.2994 15.9318C59.8533 16.2964 60.502 16.4787 61.2454 16.4787C61.9888 16.4787 62.6374 16.2964 63.1914 15.9318C63.7454 15.5672 64.1739 15.0322 64.4769 14.3267C64.7847 13.6212 64.9386 12.7547 64.9386 11.7273ZM70.3345 4.45455H74.1271L78.1328 14.2273H78.3033L82.3089 4.45455H86.1016V19H83.1186V9.53267H82.9979L79.2337 18.929H77.2024L73.4382 9.49716H73.3175V19H70.3345V4.45455Z" fill="white"/>
</g>
<defs>
<clipPath id="clip0_1122_77">
<rect width="88" height="24" fill="white"/>
</clipPath>
</defs>
</svg>
